<svg xmlns="http://www.w3.org/2000/svg" width="260" height="104.8"><defs><style>.a{fill:#0f2651}.b{fill:#fff}</style></defs><path class="a" d="M51.355 23.917c-2.43.229-4.576 1.74-4.827 4.348a4.541 4.541 0 004.535 4.955c6.129.075 6.455-8.855.292-9.303z"/><path class="a" d="M52.4 0A52.4 52.4 0 000 52.4a52.4 52.4 0 0052.4 52.4 52.4 52.4 0 0052.4-52.4A52.4 52.4 0 0052.4 0zM33.917 93.985c-1.2 1.146-3.38-.386-2.37-1.828 7.415-10.585 14.094-21.707 13.9-35.1-.188-12.741-7.348-24.926-19.344-29.883-.8-.329-.513-1.573.367-1.329 12.889 3.572 21.006 15.422 22.478 28.354 1.65 14.551-4.516 29.757-15.031 39.786zm9.581-64.883a7.773 7.773 0 017.372-8.4h.051a1.675 1.675 0 01.338-.016 8.138 8.138 0 017.782 8.044 7.754 7.754 0 01-7.6 7.721 8.068 8.068 0 01-7.945-7.349zm43.348.342c-6.412.16-12.5.688-18.1 4.181a25.047 25.047 0 00-10.453 13.65 45.5 45.5 0 003.236 34.608c.944 1.741-1.372 3.646-2.786 2.15-4.688-4.96-6.449-12.163-6.869-18.8-.451-7.13.083-14.943 2.792-21.613a27.828 27.828 0 0112.8-14.153 25.772 25.772 0 0119.722-1.308c.703.265.298 1.269-.344 1.285z"/><path class="b" d="M153.012 33.608q0 .318-.019.539a2.681 2.681 0 01-.057.381 1.072 1.072 0 01-.1.273 1.334 1.334 0 01-.2.26 2.583 2.583 0 01-.54.374 6.34 6.34 0 01-.978.438 8.539 8.539 0 01-1.32.349 8.705 8.705 0 01-1.606.14 8.465 8.465 0 01-3.047-.521 6.023 6.023 0 01-2.31-1.555 6.949 6.949 0 01-1.466-2.587 11.59 11.59 0 01-.507-3.606 11.408 11.408 0 01.559-3.72 7.739 7.739 0 011.562-2.73 6.533 6.533 0 012.405-1.676 8.125 8.125 0 013.091-.571 7.429 7.429 0 011.32.114 8.029 8.029 0 011.174.3 5.912 5.912 0 01.972.425 2.926 2.926 0 01.6.413 1.435 1.435 0 01.235.286 1.072 1.072 0 01.1.292 3.169 3.169 0 01.057.419q.019.241.019.6 0 .381-.025.647a1.688 1.688 0 01-.089.432.592.592 0 01-.153.241.3.3 0 01-.2.076.881.881 0 01-.482-.222 7.97 7.97 0 00-.755-.5 6.153 6.153 0 00-1.1-.495 4.681 4.681 0 00-1.529-.222 3.614 3.614 0 00-3.054 1.548 5.359 5.359 0 00-.819 1.8 10.459 10.459 0 00.019 4.881 4.831 4.831 0 00.851 1.745 3.436 3.436 0 001.333 1.022 4.4 4.4 0 001.759.337 5 5 0 001.536-.21 6.459 6.459 0 001.111-.463q.463-.254.762-.457a.945.945 0 01.464-.2.36.36 0 01.2.051.383.383 0 01.127.2 2.01 2.01 0 01.076.426q.024.269.024.726zm6.448 2.061a.344.344 0 01-.076.222.559.559 0 01-.26.159 2.247 2.247 0 01-.489.1 9.319 9.319 0 01-1.549 0 2.257 2.257 0 01-.489-.1.56.56 0 01-.26-.159.346.346 0 01-.076-.222v-16.7a.374.374 0 01.076-.229.571.571 0 01.26-.171 2.2 2.2 0 01.489-.108 7.891 7.891 0 011.549 0 2.194 2.194 0 01.489.108.57.57 0 01.26.171.371.371 0 01.076.229zm7.426-.004a.344.344 0 01-.076.222.559.559 0 01-.26.159 2.234 2.234 0 01-.489.1 9.355 9.355 0 01-1.549 0 2.247 2.247 0 01-.489-.1.561.561 0 01-.26-.159.346.346 0 01-.076-.222V24.34a.348.348 0 01.076-.222.567.567 0 01.26-.159 2.279 2.279 0 01.489-.095 9.39 9.39 0 011.549 0 2.265 2.265 0 01.489.095.564.564 0 01.26.159.345.345 0 01.076.222zm-1.219-16.885a.968.968 0 01.216-.241.931.931 0 01.318-.159 2.453 2.453 0 01.482-.082q.292-.025.711-.026a6.546 6.546 0 01.92.051 1.273 1.273 0 01.482.146.239.239 0 01.134.222.514.514 0 01-.127.266l-2.463 2.946a1.389 1.389 0 01-.2.209.794.794 0 01-.26.134 2.049 2.049 0 01-.4.076 5.93 5.93 0 01-.61.026 5.114 5.114 0 01-.7-.038.777.777 0 01-.362-.121.214.214 0 01-.083-.21.727.727 0 01.134-.292zm16.262 16.884a.344.344 0 01-.076.222.557.557 0 01-.254.159 2.15 2.15 0 01-.489.1q-.311.032-.768.032t-.781-.032a2.137 2.137 0 01-.489-.1.556.556 0 01-.254-.159.345.345 0 01-.076-.222v-6.462a5.466 5.466 0 00-.121-1.3 2.561 2.561 0 00-.349-.807 1.557 1.557 0 00-.59-.52 1.841 1.841 0 00-.844-.184 2.117 2.117 0 00-1.232.444 6.662 6.662 0 00-1.295 1.295v7.528a.344.344 0 01-.076.222.557.557 0 01-.26.159 2.24 2.24 0 01-.489.1 9.356 9.356 0 01-1.549 0 2.253 2.253 0 01-.489-.1.559.559 0 01-.26-.159.345.345 0 01-.076-.222V24.34a.39.39 0 01.063-.222.463.463 0 01.228-.159 1.833 1.833 0 01.425-.1 5.563 5.563 0 01.654-.032 5.867 5.867 0 01.673.032 1.534 1.534 0 01.413.1.467.467 0 01.209.159.39.39 0 01.064.222v1.308a7.173 7.173 0 011.911-1.524 4.314 4.314 0 012.025-.508 4.484 4.484 0 011.949.381 3.41 3.41 0 011.282 1.035 4.2 4.2 0 01.7 1.53 8.9 8.9 0 01.216 2.107zm7.616-15.158a1.791 1.791 0 01-.394 1.333 3.114 3.114 0 01-2.913.013 1.739 1.739 0 01-.374-1.283 1.835 1.835 0 01.387-1.339 3.065 3.065 0 012.913-.013 1.741 1.741 0 01.381 1.289zm-.241 15.158a.344.344 0 01-.076.222.559.559 0 01-.26.159 2.246 2.246 0 01-.489.1 9.321 9.321 0 01-1.549 0 2.25 2.25 0 01-.489-.1.562.562 0 01-.26-.159.346.346 0 01-.076-.222v-11.3a.346.346 0 01.076-.222.6.6 0 01.26-.165 2.178 2.178 0 01.489-.108 7.842 7.842 0 011.549 0 2.174 2.174 0 01.489.108.6.6 0 01.26.165.344.344 0 01.076.222zm12.796-1.803q0 .331-.019.552a3.274 3.274 0 01-.05.375 1.164 1.164 0 01-.077.247.909.909 0 01-.2.241 2.774 2.774 0 01-.521.356 5.135 5.135 0 01-.837.374 6.8 6.8 0 01-1.022.267 6.289 6.289 0 01-1.136.1 6.17 6.17 0 01-2.317-.406 4.348 4.348 0 01-1.7-1.2 5.276 5.276 0 01-1.034-1.936 8.94 8.94 0 01-.349-2.615 9.066 9.066 0 01.425-2.939 5.615 5.615 0 011.187-2.05 4.735 4.735 0 011.8-1.206 6.41 6.41 0 012.285-.393 5.593 5.593 0 011 .089 5.805 5.805 0 01.914.241 4.9 4.9 0 01.762.343 2.321 2.321 0 01.476.33 1.343 1.343 0 01.2.235.789.789 0 01.089.247 3.241 3.241 0 01.051.375q.018.222.019.54a2.929 2.929 0 01-.127 1.035q-.127.3-.33.3a.783.783 0 01-.457-.177 11.83 11.83 0 00-.571-.394 4.31 4.31 0 00-.787-.393 3.017 3.017 0 00-1.092-.178 2.17 2.17 0 00-1.9.959 4.958 4.958 0 00-.66 2.812 7.046 7.046 0 00.165 1.612 3.428 3.428 0 00.489 1.168 2.062 2.062 0 00.813.7 2.594 2.594 0 001.136.235 2.964 2.964 0 001.136-.2 4.584 4.584 0 00.831-.438q.356-.241.6-.438a.707.707 0 01.406-.2.288.288 0 01.191.064.452.452 0 01.121.235 2.9 2.9 0 01.07.438q.019.275.02.693zm12.847 1.841a.339.339 0 01-.127.279.879.879 0 01-.4.146 5.464 5.464 0 01-.806.045 5.541 5.541 0 01-.832-.045.716.716 0 01-.368-.146.364.364 0 01-.108-.279v-.9a5.148 5.148 0 01-1.594 1.168 4.627 4.627 0 01-1.987.419 5.557 5.557 0 01-1.656-.235 3.723 3.723 0 01-1.308-.7 3.141 3.141 0 01-.857-1.149 3.915 3.915 0 01-.3-1.6 3.618 3.618 0 01.387-1.72 3.148 3.148 0 011.156-1.206 5.74 5.74 0 011.911-.7 13.641 13.641 0 012.653-.229h1.1v-.686a3.63 3.63 0 00-.108-.933 1.566 1.566 0 00-.356-.667 1.473 1.473 0 00-.66-.394 3.532 3.532 0 00-1.022-.127 5.261 5.261 0 00-1.428.178 8.215 8.215 0 00-1.111.394q-.483.216-.806.394a1.183 1.183 0 01-.527.178.377.377 0 01-.247-.089.644.644 0 01-.178-.254 1.753 1.753 0 01-.108-.406 3.4 3.4 0 01-.038-.533 2.406 2.406 0 01.063-.622.955.955 0 01.241-.413 2.358 2.358 0 01.622-.406 7.259 7.259 0 011.041-.413 9.625 9.625 0 011.3-.311 8.581 8.581 0 011.453-.121 8.686 8.686 0 012.279.26 3.838 3.838 0 011.555.8 3.111 3.111 0 01.889 1.39 6.515 6.515 0 01.279 2.019zm-3.135-4.85h-1.219a6.552 6.552 0 00-1.32.114 2.531 2.531 0 00-.888.343 1.413 1.413 0 00-.5.552 1.668 1.668 0 00-.159.743 1.428 1.428 0 00.451 1.118 1.8 1.8 0 001.25.406 2.343 2.343 0 001.238-.343 5.142 5.142 0 001.149-1zm-57.339 29.6a.35.35 0 01-.083.229.576.576 0 01-.273.165 2.667 2.667 0 01-.508.1 6.88 6.88 0 01-.8.038 7.19 7.19 0 01-.819-.038 2.521 2.521 0 01-.508-.1.581.581 0 01-.267-.165.354.354 0 01-.082-.229v-6.64h-6.145v6.64a.371.371 0 01-.076.229.535.535 0 01-.267.165 2.663 2.663 0 01-.508.1 8.54 8.54 0 01-1.619 0 2.671 2.671 0 01-.514-.1.582.582 0 01-.273-.165.354.354 0 01-.082-.229V44.938a.356.356 0 01.082-.229.587.587 0 01.273-.165 2.7 2.7 0 01.514-.1 8.622 8.622 0 011.619 0 2.688 2.688 0 01.508.1.539.539 0 01.267.165.373.373 0 01.076.229v6.03h6.145v-6.03a.356.356 0 01.082-.229.585.585 0 01.267-.165 2.543 2.543 0 01.508-.1 7.288 7.288 0 01.819-.038 6.974 6.974 0 01.8.038 2.692 2.692 0 01.508.1.581.581 0 01.273.165.352.352 0 01.083.229zm15.88-5.75a8.665 8.665 0 01-.381 2.641 5.574 5.574 0 01-1.155 2.057 5.137 5.137 0 01-1.942 1.333 7.287 7.287 0 01-2.729.47 7.475 7.475 0 01-2.628-.419 4.721 4.721 0 01-1.854-1.219 5.007 5.007 0 01-1.092-1.968 9.16 9.16 0 01-.355-2.666 8.58 8.58 0 01.387-2.647 5.57 5.57 0 011.162-2.057 5.173 5.173 0 011.936-1.327 7.242 7.242 0 012.723-.47 7.63 7.63 0 012.641.412 4.622 4.622 0 011.847 1.213 5.048 5.048 0 011.085 1.968 9.2 9.2 0 01.355 2.679zm-3.288.127a8.3 8.3 0 00-.134-1.542 3.624 3.624 0 00-.45-1.225 2.255 2.255 0 00-.844-.812 2.711 2.711 0 00-1.327-.292 2.807 2.807 0 00-1.244.26 2.235 2.235 0 00-.876.762 3.64 3.64 0 00-.514 1.206 6.806 6.806 0 00-.172 1.606 7.954 7.954 0 00.14 1.543 3.8 3.8 0 00.451 1.225 2.144 2.144 0 00.844.806 2.771 2.771 0 001.32.286 2.839 2.839 0 001.257-.26 2.252 2.252 0 00.876-.755 3.488 3.488 0 00.508-1.2 7.091 7.091 0 00.165-1.608zm14.827 2.45a3.812 3.812 0 01-.362 1.7 3.384 3.384 0 01-1.022 1.231 4.609 4.609 0 01-1.562.743 7.361 7.361 0 01-1.955.248 7.56 7.56 0 01-2.247-.336 5.386 5.386 0 01-.762-.3 1.869 1.869 0 01-.444-.286.874.874 0 01-.216-.419 3.5 3.5 0 01-.076-.844 5.431 5.431 0 01.025-.59 1.524 1.524 0 01.076-.356.334.334 0 01.127-.177.371.371 0 01.19-.045.952.952 0 01.413.159q.273.159.679.349a7.176 7.176 0 00.946.355 4.181 4.181 0 001.225.165 3.006 3.006 0 00.769-.089 1.94 1.94 0 00.584-.254 1.075 1.075 0 00.374-.419 1.286 1.286 0 00.127-.584.971.971 0 00-.235-.654 2.1 2.1 0 00-.622-.476 7.251 7.251 0 00-.876-.381q-.488-.178-1-.393a9.113 9.113 0 01-1-.5 3.814 3.814 0 01-.876-.685 3.108 3.108 0 01-.622-.978 3.6 3.6 0 01-.235-1.371 3.481 3.481 0 01.318-1.492 3.244 3.244 0 01.914-1.162 4.342 4.342 0 011.453-.749 6.463 6.463 0 011.924-.267 6.89 6.89 0 011.034.076 7.528 7.528 0 01.908.191 4.378 4.378 0 01.686.247 2.306 2.306 0 01.4.229.641.641 0 01.171.191.812.812 0 01.076.229c.017.089.032.2.045.33s.019.294.019.489q0 .343-.019.558a1.478 1.478 0 01-.064.343.307.307 0 01-.12.171.346.346 0 01-.178.044.864.864 0 01-.356-.133 6.475 6.475 0 00-.6-.286 7.162 7.162 0 00-.838-.285 4.025 4.025 0 00-1.085-.133 2.8 2.8 0 00-.749.089 1.428 1.428 0 00-.52.254 1.074 1.074 0 00-.3.387 1.135 1.135 0 00-.1.476.95.95 0 00.241.66 2.212 2.212 0 00.635.47 7.183 7.183 0 00.895.381q.5.178 1.016.387a9.275 9.275 0 011.015.489 3.852 3.852 0 01.9.685 3.182 3.182 0 01.635.971 3.4 3.4 0 01.221 1.347zm14.84-2.628a10.557 10.557 0 01-.324 2.723 6.135 6.135 0 01-.946 2.063 4.2 4.2 0 01-1.549 1.308 4.736 4.736 0 01-2.12.457 4.053 4.053 0 01-.908-.1 3.518 3.518 0 01-.8-.292 4.993 4.993 0 01-.768-.489 8.969 8.969 0 01-.787-.686v5.332a.37.37 0 01-.077.228.567.567 0 01-.26.171 2.184 2.184 0 01-.489.108 7.916 7.916 0 01-1.549 0 2.191 2.191 0 01-.489-.108.573.573 0 01-.261-.171.374.374 0 01-.075-.228V49.154a.392.392 0 01.063-.222.463.463 0 01.222-.159 1.712 1.712 0 01.419-.1 5.616 5.616 0 01.653-.032 5.5 5.5 0 01.641.032 1.712 1.712 0 01.419.1.465.465 0 01.222.159.392.392 0 01.063.222v1.333a11.518 11.518 0 01.972-.895 5.879 5.879 0 01.971-.648 4.431 4.431 0 011.022-.387 4.782 4.782 0 011.123-.127 4.288 4.288 0 012.12.489 4.018 4.018 0 011.429 1.339 6.048 6.048 0 01.806 1.981 10.987 10.987 0 01.257 2.412zm-3.326.228a8.673 8.673 0 00-.108-1.39 4.114 4.114 0 00-.368-1.187 2.263 2.263 0 00-.686-.832 1.747 1.747 0 00-1.06-.311 2.123 2.123 0 00-.628.1 2.423 2.423 0 00-.635.311 4.419 4.419 0 00-.667.559 8.008 8.008 0 00-.724.851v3.732a7.459 7.459 0 001.282 1.314 2.07 2.07 0 001.269.464 1.758 1.758 0 001.06-.318 2.449 2.449 0 00.717-.832 4.171 4.171 0 00.413-1.162 6.414 6.414 0 00.137-1.299zm10.359-9.564a1.789 1.789 0 01-.394 1.333 3.113 3.113 0 01-2.913.013 1.738 1.738 0 01-.374-1.282 1.835 1.835 0 01.387-1.339 3.066 3.066 0 012.913-.013 1.742 1.742 0 01.381 1.288zm-.241 15.158a.344.344 0 01-.076.222.559.559 0 01-.26.159 2.273 2.273 0 01-.489.1 9.428 9.428 0 01-1.549 0 2.277 2.277 0 01-.489-.1.562.562 0 01-.261-.159.346.346 0 01-.076-.222v-11.3a.347.347 0 01.076-.222.606.606 0 01.261-.165 2.184 2.184 0 01.489-.108 7.892 7.892 0 011.549 0 2.181 2.181 0 01.489.108.6.6 0 01.26.165.345.345 0 01.076.222zm10.928-1.113a4.022 4.022 0 01-.07.857.925.925 0 01-.184.419 1.01 1.01 0 01-.337.216 3.159 3.159 0 01-.521.165 5.437 5.437 0 01-.647.108 6.5 6.5 0 01-.7.038 5.057 5.057 0 01-1.65-.241 2.736 2.736 0 01-1.156-.743 3.087 3.087 0 01-.673-1.263 6.638 6.638 0 01-.216-1.8v-5.8h-1.361q-.241 0-.368-.3a2.776 2.776 0 01-.127-1 5.234 5.234 0 01.031-.622 1.486 1.486 0 01.1-.4.465.465 0 01.159-.209.391.391 0 01.222-.064h1.346v-2.526a.4.4 0 01.07-.229.525.525 0 01.254-.171 2.011 2.011 0 01.5-.1c.207-.021.463-.032.768-.032s.573.011.781.032a1.918 1.918 0 01.489.1.576.576 0 01.254.171.374.374 0 01.076.229v2.526h2.455a.391.391 0 01.222.064.465.465 0 01.159.209 1.5 1.5 0 01.1.4 5.2 5.2 0 01.032.622 2.789 2.789 0 01-.127 1q-.127.3-.368.3h-2.476v5.319a2.642 2.642 0 00.292 1.39 1.133 1.133 0 001.041.464 2.129 2.129 0 00.457-.045 2.881 2.881 0 00.362-.1c.106-.038.195-.072.267-.1a.52.52 0 01.2-.045.269.269 0 01.146.045.3.3 0 01.108.178 2.754 2.754 0 01.07.362 4.438 4.438 0 01.02.576zm12.746 1.152a.339.339 0 01-.127.279.873.873 0 01-.4.146 5.412 5.412 0 01-.806.045 5.493 5.493 0 01-.832-.045.717.717 0 01-.368-.146.365.365 0 01-.108-.279v-.9a5.142 5.142 0 01-1.594 1.168 4.628 4.628 0 01-1.987.419 5.565 5.565 0 01-1.656-.235 3.731 3.731 0 01-1.308-.7 3.138 3.138 0 01-.857-1.149 3.907 3.907 0 01-.3-1.6 3.62 3.62 0 01.387-1.72 3.153 3.153 0 011.156-1.206 5.743 5.743 0 011.911-.7 13.664 13.664 0 012.654-.229h1.1v-.686a3.621 3.621 0 00-.108-.933 1.556 1.556 0 00-.356-.666 1.469 1.469 0 00-.66-.394 3.545 3.545 0 00-1.022-.127 5.267 5.267 0 00-1.428.178 8.2 8.2 0 00-1.111.394q-.482.216-.806.394a1.183 1.183 0 01-.527.178.377.377 0 01-.247-.089.643.643 0 01-.178-.254 1.723 1.723 0 01-.108-.406 3.385 3.385 0 01-.038-.533 2.417 2.417 0 01.063-.622.958.958 0 01.241-.413 2.366 2.366 0 01.622-.406 7.318 7.318 0 011.041-.412 9.626 9.626 0 011.3-.311 8.6 8.6 0 011.453-.12 8.7 8.7 0 012.279.26 3.847 3.847 0 011.555.8 3.113 3.113 0 01.889 1.39 6.508 6.508 0 01.279 2.018zm-3.136-4.85h-1.219a6.552 6.552 0 00-1.32.114 2.544 2.544 0 00-.889.343 1.418 1.418 0 00-.5.552 1.667 1.667 0 00-.159.743 1.427 1.427 0 00.451 1.117 1.8 1.8 0 001.251.406 2.342 2.342 0 001.238-.343 5.132 5.132 0 001.149-1zm10.562 4.816a.344.344 0 01-.076.222.56.56 0 01-.26.159 2.271 2.271 0 01-.488.1 9.395 9.395 0 01-1.549 0 2.285 2.285 0 01-.489-.1.563.563 0 01-.26-.159.346.346 0 01-.076-.222V43.783a.373.373 0 01.076-.229.573.573 0 01.26-.172 2.217 2.217 0 01.489-.108 7.895 7.895 0 011.549 0 2.2 2.2 0 01.488.108.57.57 0 01.26.172.371.371 0 01.076.229zm13.875.034a.339.339 0 01-.127.279.875.875 0 01-.4.146 5.412 5.412 0 01-.806.045 5.493 5.493 0 01-.832-.045.714.714 0 01-.368-.146.364.364 0 01-.108-.279v-.9a5.145 5.145 0 01-1.594 1.168 4.627 4.627 0 01-1.987.419 5.565 5.565 0 01-1.656-.235 3.731 3.731 0 01-1.308-.7 3.145 3.145 0 01-.857-1.149 3.913 3.913 0 01-.3-1.6 3.618 3.618 0 01.387-1.72 3.15 3.15 0 011.156-1.206 5.741 5.741 0 011.911-.7 13.66 13.66 0 012.653-.229h1.1v-.686a3.632 3.632 0 00-.108-.933 1.562 1.562 0 00-.355-.666 1.472 1.472 0 00-.66-.394 3.543 3.543 0 00-1.022-.127 5.269 5.269 0 00-1.428.178 8.209 8.209 0 00-1.111.394q-.483.216-.806.394a1.183 1.183 0 01-.527.178.376.376 0 01-.247-.089.643.643 0 01-.178-.254 1.759 1.759 0 01-.108-.406 3.4 3.4 0 01-.038-.533 2.412 2.412 0 01.063-.622.959.959 0 01.241-.413 2.358 2.358 0 01.622-.406 7.3 7.3 0 011.041-.412 9.631 9.631 0 011.3-.311 9.571 9.571 0 013.732.14 3.845 3.845 0 011.556.8 3.113 3.113 0 01.889 1.39 6.508 6.508 0 01.279 2.018zm-3.136-4.85h-1.219a6.552 6.552 0 00-1.32.114 2.541 2.541 0 00-.888.343 1.417 1.417 0 00-.5.552 1.67 1.67 0 00-.159.743 1.427 1.427 0 00.451 1.117 1.8 1.8 0 001.25.406 2.343 2.343 0 001.238-.343 5.142 5.142 0 001.149-1zm14.636-5.45q0 .457-.025.749a2.322 2.322 0 01-.076.457.447.447 0 01-.133.229.334.334 0 01-.209.064.7.7 0 01-.229-.045l-.285-.1q-.158-.056-.349-.1a1.842 1.842 0 00-.419-.045 1.414 1.414 0 00-.533.108 2.253 2.253 0 00-.552.337 4.073 4.073 0 00-.6.609 9.869 9.869 0 00-.667.939v7.059a.344.344 0 01-.076.222.56.56 0 01-.26.159 2.283 2.283 0 01-.489.1 9.426 9.426 0 01-1.549 0 2.294 2.294 0 01-.489-.1.562.562 0 01-.26-.159.346.346 0 01-.076-.222V49.154a.391.391 0 01.064-.222.462.462 0 01.228-.159 1.821 1.821 0 01.425-.1 5.636 5.636 0 01.654-.032 5.934 5.934 0 01.673.032 1.522 1.522 0 01.413.1.466.466 0 01.209.159.393.393 0 01.064.222v1.409a9.027 9.027 0 01.838-1.048 4.722 4.722 0 01.749-.654 2.341 2.341 0 01.711-.336 2.727 2.727 0 01.711-.1c.11 0 .229.006.356.019a3.437 3.437 0 01.394.064 2.628 2.628 0 01.355.1.7.7 0 01.222.121.387.387 0 01.1.14 1.044 1.044 0 01.057.209 3.079 3.079 0 01.038.4q.015.272.015.734z"/><path class="a" d="M153.838 85.292a.494.494 0 01-.051.234.4.4 0 01-.241.159 2.4 2.4 0 01-.558.089q-.369.025-1 .025-.534 0-.851-.025a1.908 1.908 0 01-.5-.1.546.546 0 01-.26-.178 1.011 1.011 0 01-.127-.26l-1.472-3.669q-.267-.621-.521-1.1a3.552 3.552 0 00-.565-.806 2.069 2.069 0 00-.717-.489 2.494 2.494 0 00-.94-.165h-1.041v6.259a.35.35 0 01-.083.229.577.577 0 01-.272.165 2.7 2.7 0 01-.508.1 8.617 8.617 0 01-1.619 0 2.692 2.692 0 01-.514-.1.535.535 0 01-.267-.165.37.37 0 01-.076-.229V70.349a1.015 1.015 0 01.285-.806 1.039 1.039 0 01.7-.248h4.253q.648 0 1.066.026t.762.063a6.928 6.928 0 011.784.483 4.27 4.27 0 011.346.895 3.735 3.735 0 01.844 1.307 4.786 4.786 0 01.292 1.733 5.091 5.091 0 01-.209 1.5 3.859 3.859 0 01-.616 1.213 4.046 4.046 0 01-1 .927 5.443 5.443 0 01-1.359.635 3.763 3.763 0 01.692.431 3.665 3.665 0 01.61.616 5.983 5.983 0 01.54.826 10.578 10.578 0 01.495 1.047l1.384 3.237q.19.482.254.7a1.383 1.383 0 01.06.358zm-4.3-11.147a2.439 2.439 0 00-.369-1.371 2 2 0 00-1.206-.787 4.693 4.693 0 00-.577-.1 8.023 8.023 0 00-.9-.038h-1.5v4.659h1.7a4.08 4.08 0 001.244-.172 2.477 2.477 0 00.888-.483 1.977 1.977 0 00.533-.743 2.519 2.519 0 00.183-.965zm17.679 5.154a1.234 1.234 0 01-.26.863.933.933 0 01-.717.28h-6.894a4.7 4.7 0 00.171 1.314 2.5 2.5 0 00.546 1 2.376 2.376 0 00.965.629 4.131 4.131 0 001.416.215 7.961 7.961 0 001.473-.121 9.693 9.693 0 001.1-.267q.464-.146.768-.266a1.418 1.418 0 01.5-.121.373.373 0 01.19.044.335.335 0 01.127.159 1.079 1.079 0 01.07.323q.019.21.019.527 0 .279-.013.476a2.913 2.913 0 01-.038.337.811.811 0 01-.076.234.889.889 0 01-.133.184 1.549 1.549 0 01-.45.241 7.149 7.149 0 01-.94.3 13.071 13.071 0 01-1.308.254 10.856 10.856 0 01-1.574.108 8.331 8.331 0 01-2.646-.381 4.709 4.709 0 01-1.9-1.155 4.809 4.809 0 01-1.137-1.955 9.192 9.192 0 01-.374-2.768 8.808 8.808 0 01.393-2.723 5.706 5.706 0 011.143-2.056 4.91 4.91 0 011.822-1.289 7.023 7.023 0 014.849-.026 4.384 4.384 0 011.651 1.165 4.687 4.687 0 01.952 1.758 7.661 7.661 0 01.305 2.209zm-3.1-.914a3.282 3.282 0 00-.54-2.113 2.087 2.087 0 00-1.783-.768 2.318 2.318 0 00-1.06.229 2.166 2.166 0 00-.749.616 2.8 2.8 0 00-.457.914 4.536 4.536 0 00-.184 1.123zm15.338 5.103q0 .331-.019.552a3.268 3.268 0 01-.051.375 1.153 1.153 0 01-.076.247.906.906 0 01-.2.241 2.771 2.771 0 01-.521.356 5.114 5.114 0 01-.837.375 6.816 6.816 0 01-1.022.267 6.283 6.283 0 01-1.136.1 6.166 6.166 0 01-2.317-.406 4.345 4.345 0 01-1.7-1.2 5.276 5.276 0 01-1.034-1.936 8.952 8.952 0 01-.349-2.616 9.067 9.067 0 01.425-2.939 5.616 5.616 0 011.187-2.05 4.736 4.736 0 011.8-1.206 6.411 6.411 0 012.285-.393 5.567 5.567 0 011 .089 5.767 5.767 0 01.914.241 4.9 4.9 0 01.762.343 2.314 2.314 0 01.476.33 1.338 1.338 0 01.2.235.8.8 0 01.089.247 3.31 3.31 0 01.051.375c.012.148.019.328.019.539a2.92 2.92 0 01-.127 1.035q-.127.3-.33.3a.78.78 0 01-.457-.178q-.241-.177-.571-.393a4.293 4.293 0 00-.787-.394 3.014 3.014 0 00-1.092-.178 2.17 2.17 0 00-1.9.959 4.957 4.957 0 00-.66 2.812 7.037 7.037 0 00.165 1.612 3.415 3.415 0 00.489 1.168 2.057 2.057 0 00.813.7 2.587 2.587 0 001.136.235 2.963 2.963 0 001.137-.2 4.651 4.651 0 00.831-.438q.355-.242.6-.438a.705.705 0 01.406-.2.289.289 0 01.191.063.457.457 0 01.121.235 2.945 2.945 0 01.069.438c.011.188.02.417.02.696zm12.847 1.841a.338.338 0 01-.127.279.871.871 0 01-.4.147 5.459 5.459 0 01-.806.044 5.543 5.543 0 01-.832-.044.716.716 0 01-.368-.147.365.365 0 01-.108-.279v-.9a5.149 5.149 0 01-1.594 1.168 4.625 4.625 0 01-1.987.419 5.569 5.569 0 01-1.656-.235 3.727 3.727 0 01-1.307-.7 3.139 3.139 0 01-.857-1.149 3.911 3.911 0 01-.3-1.6 3.616 3.616 0 01.387-1.72 3.147 3.147 0 011.156-1.206 5.741 5.741 0 011.911-.705 13.682 13.682 0 012.653-.228h1.1v-.686a3.609 3.609 0 00-.108-.933 1.554 1.554 0 00-.356-.667 1.465 1.465 0 00-.66-.394 3.535 3.535 0 00-1.022-.127 5.266 5.266 0 00-1.428.178 8.2 8.2 0 00-1.111.394q-.482.216-.806.394a1.18 1.18 0 01-.527.177.378.378 0 01-.247-.089.644.644 0 01-.178-.254 1.724 1.724 0 01-.108-.406 3.4 3.4 0 01-.038-.533 2.417 2.417 0 01.063-.622.958.958 0 01.241-.412 2.364 2.364 0 01.622-.407 7.333 7.333 0 011.041-.412 9.642 9.642 0 011.3-.311 8.59 8.59 0 011.453-.121 8.7 8.7 0 012.279.26 3.847 3.847 0 011.555.8 3.112 3.112 0 01.888 1.39 6.5 6.5 0 01.28 2.018zm-3.136-4.849h-1.219a6.523 6.523 0 00-1.32.115 2.523 2.523 0 00-.889.343 1.409 1.409 0 00-.5.552 1.664 1.664 0 00-.159.743 1.426 1.426 0 00.451 1.117 1.8 1.8 0 001.25.406 2.345 2.345 0 001.238-.343 5.134 5.134 0 001.149-1zm18.178 4.811a.344.344 0 01-.076.222.552.552 0 01-.254.158 2.126 2.126 0 01-.489.1q-.311.031-.768.032t-.781-.032a2.116 2.116 0 01-.489-.1.555.555 0 01-.254-.158.347.347 0 01-.076-.222v-6.462a5.474 5.474 0 00-.12-1.3 2.564 2.564 0 00-.35-.806 1.555 1.555 0 00-.59-.52 1.841 1.841 0 00-.844-.184 2.119 2.119 0 00-1.232.444 6.642 6.642 0 00-1.295 1.3v7.529a.345.345 0 01-.076.222.557.557 0 01-.26.158 2.221 2.221 0 01-.489.1q-.3.031-.775.032t-.774-.032a2.225 2.225 0 01-.489-.1.56.56 0 01-.26-.158.348.348 0 01-.076-.222V73.967a.392.392 0 01.063-.222.463.463 0 01.228-.159 1.839 1.839 0 01.425-.1 5.624 5.624 0 01.654-.032 5.933 5.933 0 01.673.032 1.537 1.537 0 01.413.1.467.467 0 01.209.159.393.393 0 01.064.222v1.308a7.172 7.172 0 011.911-1.524 4.314 4.314 0 012.025-.508 4.484 4.484 0 011.948.381 3.409 3.409 0 011.282 1.035 4.2 4.2 0 01.7 1.53 8.907 8.907 0 01.216 2.107zm10.637-1.117a4.029 4.029 0 01-.069.857.924.924 0 01-.184.419 1 1 0 01-.337.216 3.139 3.139 0 01-.52.165 5.417 5.417 0 01-.648.108 6.522 6.522 0 01-.7.038 5.059 5.059 0 01-1.65-.241 2.739 2.739 0 01-1.156-.743 3.091 3.091 0 01-.673-1.263 6.64 6.64 0 01-.216-1.8v-5.8h-1.359c-.161 0-.284-.1-.368-.3a2.775 2.775 0 01-.127-1 5.2 5.2 0 01.032-.622 1.48 1.48 0 01.1-.4.462.462 0 01.159-.209.391.391 0 01.222-.064h1.346v-2.526a.4.4 0 01.07-.229.526.526 0 01.254-.171 2.01 2.01 0 01.5-.1q.31-.031.768-.032t.781.032a1.914 1.914 0 01.489.1.575.575 0 01.254.171.373.373 0 01.076.229v2.526h2.463a.392.392 0 01.222.064.468.468 0 01.159.209 1.5 1.5 0 01.1.4 5.208 5.208 0 01.031.622 2.787 2.787 0 01-.127 1q-.127.3-.368.3h-2.498v5.319a2.641 2.641 0 00.292 1.39 1.131 1.131 0 001.041.463 2.156 2.156 0 00.457-.044 2.958 2.958 0 00.362-.1c.105-.038.195-.072.267-.1a.519.519 0 01.2-.044.267.267 0 01.146.044.3.3 0 01.108.178 2.728 2.728 0 01.07.362 4.443 4.443 0 01.031.576zm14.549-4.659a8.665 8.665 0 01-.381 2.64 5.579 5.579 0 01-1.156 2.057 5.138 5.138 0 01-1.942 1.333 7.289 7.289 0 01-2.729.47 7.47 7.47 0 01-2.628-.419 4.722 4.722 0 01-1.854-1.219 5 5 0 01-1.092-1.968 9.156 9.156 0 01-.355-2.666 8.577 8.577 0 01.387-2.647 5.567 5.567 0 011.162-2.057 5.176 5.176 0 011.936-1.327 7.241 7.241 0 012.723-.47 7.625 7.625 0 012.641.413 4.618 4.618 0 011.847 1.213 5.047 5.047 0 011.085 1.968 9.2 9.2 0 01.356 2.679zm-3.288.127a8.285 8.285 0 00-.134-1.542 3.616 3.616 0 00-.45-1.225 2.249 2.249 0 00-.844-.813 2.71 2.71 0 00-1.327-.292 2.8 2.8 0 00-1.244.26 2.231 2.231 0 00-.876.761 3.643 3.643 0 00-.514 1.206 6.813 6.813 0 00-.171 1.606 7.932 7.932 0 00.14 1.542 3.793 3.793 0 00.451 1.225 2.143 2.143 0 00.844.806 2.766 2.766 0 001.32.285 2.839 2.839 0 001.257-.26 2.255 2.255 0 00.876-.755 3.491 3.491 0 00.508-1.2 7.1 7.1 0 00.163-1.605z"/><path class="b" d="M121.355 88.312a.8.8 0 01-.8-.8V17.287a.8.8 0 111.6 0v70.227a.8.8 0 01-.8.798z"/></svg>