<svg xmlns="http://www.w3.org/2000/svg" width="38.643" height="42.387"><defs><style>.a{fill:#fff}</style></defs><path class="a" d="M38.643 15.272a13.48 13.48 0 00-6.544-11.818A24.625 24.625 0 0019.155 0C14.192 0 9.728 1.671 6.908 4.585a.621.621 0 10.892.864c2.588-2.673 6.726-4.207 11.355-4.207A23.358 23.358 0 0131.43 4.5a12.29 12.29 0 015.972 10.772c0 5.638-.741 7.948-5.647 12.388-1.411 1.277-1.248 4.185.5 8.89a1.048 1.048 0 01-.72 1.382l-3.838.989a.621.621 0 10.31 1.2l3.838-.989a2.29 2.29 0 001.574-3.016c-1.463-3.943-1.765-6.69-.829-7.537 5.181-4.689 6.056-7.435 6.056-13.309zM24.912 39.638l-5.723 1.474a1.05 1.05 0 01-1.231-.619c-.736-1.814-2.46-6.061-6.846-5.467l-.918.127a17.863 17.863 0 01-3.735.313c-1.473-.241-2.282-.851-2.545-1.921a2 2 0 01.328-1.641 1.228 1.228 0 00-.383-1.568 3.4 3.4 0 00-.855-.412c-.006-.134.057-.338.378-.569a.621.621 0 00.13-.882 10.386 10.386 0 00-1.189-1.149c.514-.366 1.5-1.193 1.369-2.108-.053-.383-.316-.9-1.266-1.193-1.04-.32-1.184-.722-1.185-1.109s.233-.639.794-1.071a9.666 9.666 0 002.691-2.979 1.748 1.748 0 00.084-1.537 6.13 6.13 0 00-.468-.834c-.258-.409-.526-.833-.464-1.1a3.314 3.314 0 01.231-.563 6.177 6.177 0 00.683-2.417A11.161 11.161 0 016.161 7.64a.621.621 0 00-1.083-.607 12.393 12.393 0 00-1.525 5.3 4.957 4.957 0 01-.566 1.967 4.128 4.128 0 00-.318.812 2.718 2.718 0 00.623 2.044 5.178 5.178 0 01.377.661.5.5 0 01-.026.438 8.263 8.263 0 01-2.366 2.6 2.594 2.594 0 00-1.278 2.057c0 1.1.7 1.873 2.062 2.293a1.015 1.015 0 01.4.191 2.72 2.72 0 01-1 1.007.621.621 0 00-.172.167 1.324 1.324 0 00.348 1.813c.207.165.376.315.509.442a1.668 1.668 0 00-.119 1.959.621.621 0 00.383.257 2.455 2.455 0 01.721.3l-.013.024a3.073 3.073 0 00-.411 2.475c.386 1.568 1.581 2.527 3.551 2.849a17.147 17.147 0 004.109-.309l.912-.127c3.015-.409 4.439 2.019 5.528 4.7a2.3 2.3 0 002.125 1.426 2.269 2.269 0 00.567-.072l5.721-1.475a.621.621 0 00-.31-1.2z"/><path class="a" d="M10.003 19.349a4.374 4.374 0 00.843.184l.015 3.6a1.1 1.1 0 001.02 1.085l1 .066h.072a1.1 1.1 0 001.082-.945l.487-3.571a5.267 5.267 0 003.356 1.027l-.093.539a1.1 1.1 0 00.816 1.246l.977.24a1.083 1.083 0 00.258.031 1.1 1.1 0 00.9-.477 4.661 4.661 0 001.8.365 4.588 4.588 0 00.731-.059q.269-.043.536-.064l-1.487 4.1a1.1 1.1 0 00.583 1.371l.92.408a1.082 1.082 0 00.44.093 1.1 1.1 0 00.968-.58l2.438-4.6a5.415 5.415 0 001.029.1 5.374 5.374 0 004.919-7.489 4.619 4.619 0 001.4-2.3 4.714 4.714 0 00-.368-3.42 4.216 4.216 0 00-2.593-2.053 4.657 4.657 0 00-.746-1.627.621.621 0 00-1.008.726 3.4 3.4 0 01.6 1.448.621.621 0 00.386.48 3.628 3.628 0 012.285 1.616 3.478 3.478 0 01.257 2.522 3.376 3.376 0 01-1.331 1.928.621.621 0 00-.187.808 4.129 4.129 0 01-4.011 6.1l2.6-4.9a1.563 1.563 0 00-.746-2.162l-1.6-.71a1.563 1.563 0 00-2.1.9l-2.184 5.981a7.783 7.783 0 00-1.192.1 3.352 3.352 0 01-1.369-.063 3.4 3.4 0 01-.538-.188l1.131-3.529a.621.621 0 00-1.183-.379l-1.373 4.285-.706-.173L21.06 9.66a.322.322 0 01.393-.258l1.7.416a.322.322 0 01.23.411l-1.388 4.331a.621.621 0 001.183.379l1.388-4.331a1.563 1.563 0 00-1.117-2l-1.7-.416a1.564 1.564 0 00-1.913 1.253l-1.74 10.11a3.771 3.771 0 01-3.357-1.35l.93-6.818a1.563 1.563 0 00-1.446-1.771l-1.745-.115a1.564 1.564 0 00-1.666 1.566l.029 7.205a3.143 3.143 0 01-.455-.11 3.082 3.082 0 01-1.372-4.949.621.621 0 00.1-.652 3.584 3.584 0 01-.18-2.318 3.622 3.622 0 013.2-2.711.621.621 0 00.545-.451 2.974 2.974 0 014.516-1.669.621.621 0 00.794-.087 4.1 4.1 0 016.652 1.034.621.621 0 00.924.229 3.378 3.378 0 012.729-.568.621.621 0 00.272-1.212 4.617 4.617 0 00-3.147.412 5.343 5.343 0 00-7.968-1.1 4.217 4.217 0 00-5.834 2.223 4.865 4.865 0 00-3.885 3.589 4.81 4.81 0 00.107 2.762 4.323 4.323 0 002.165 6.646zm17.6-3.548a.322.322 0 01.433-.184l1.6.71a.322.322 0 01.154.445l-5.588 10.53-.664-.3zm-15.451-4.969a.317.317 0 01.241-.087l1.745.115a.322.322 0 01.3.364l-1.611 11.812-.726-.048-.049-11.921a.319.319 0 01.1-.235zm.08 14.998a2.541 2.541 0 00-2.665 2.336 2.509 2.509 0 002.336 2.665 2.54 2.54 0 002.665-2.336 2.509 2.509 0 00-2.336-2.665zm1.1 2.584a1.264 1.264 0 01-2.523-.166 1.29 1.29 0 011.345-1.178 1.266 1.266 0 011.174 1.341z"/><path class="a" d="M20.218 25.366a2.489 2.489 0 00-1.546-1.135 2.542 2.542 0 00-3.03 1.838 2.509 2.509 0 001.838 3.03 2.547 2.547 0 003.03-1.838 2.49 2.49 0 00-.292-1.895zm-.915 1.6a1.3 1.3 0 01-1.529.927 1.266 1.266 0 01-.927-1.529 1.281 1.281 0 011.529-.927 1.294 1.294 0 01.93 1.529zm4.501 3.742a2.489 2.489 0 00-1.547-1.135 2.542 2.542 0 00-3.03 1.838 2.509 2.509 0 001.838 3.03 2.547 2.547 0 003.03-1.838 2.489 2.489 0 00-.291-1.895zm-.915 1.6a1.3 1.3 0 01-1.529.927 1.266 1.266 0 01-.927-1.529 1.281 1.281 0 011.529-.927 1.294 1.294 0 01.927 1.529z"/></svg>