<svg xmlns="http://www.w3.org/2000/svg" width="37.608" height="46.634"><path d="M37.608 0H7.962L0 7.962v38.672h37.608zM7.521 2.568v4.954H2.567zM36.1 45.13H1.5V9.026h7.526V1.5H36.1zm-8.27-18.052v-3.932a3.779 3.779 0 00-2.441-3.522l-3.576-1.341v-.637a4.511 4.511 0 001.26-1.9 3.008 3.008 0 002.5-2.958v-3.01a6.77 6.77 0 10-13.539 0v3.009a3.008 3.008 0 002.5 2.958 4.521 4.521 0 001.26 1.9v.637l-3.576 1.342a3.777 3.777 0 00-2.441 3.521v3.932zM18.8 17.3a3.012 3.012 0 01-3-3.009v-3.06a5.822 5.822 0 003.009-1.2 5.81 5.81 0 003.009 1.2v3.06A3.012 3.012 0 0118.8 17.3zm4.513-3.218v-2.59a1.491 1.491 0 010 2.591zM18.8 4.513a5.271 5.271 0 015.265 5.265v.422a2.976 2.976 0 00-1.5-.418h-.129a4.356 4.356 0 01-3.1-1.284l-.536-.536-.532.532a4.354 4.354 0 01-3.1 1.284h-.129a2.976 2.976 0 00-1.5.418v-.418A5.271 5.271 0 0118.8 4.513zm-5.265 8.274a1.5 1.5 0 01.752-1.3v2.591a1.5 1.5 0 01-.752-1.3zM18.8 18.8a4.491 4.491 0 001.5-.263v.063l-1.5 2.5-1.5-2.5v-.055a4.491 4.491 0 001.5.255zm-7.522 4.341a2.267 2.267 0 011.464-2.113l3.478-1.3 2.579 4.3 2.579-4.3 3.478 1.3a2.267 2.267 0 011.464 2.113v2.428h-1.5v-1.5h-1.5v1.5h-9.029v-1.5h-1.5v1.5h-1.5zm-3.757 8.45H4.513v-1.5h3.008zm1.5-1.5h24.074v1.5H9.026zM4.513 33.1h28.582v1.5H4.513zm6.017 4.513H4.513V36.1h6.017zm1.5-1.5h21.065v1.5H12.034zm12.035 3.009h9.026v1.5h-9.022zm-1.5 1.5H4.513v-1.5h18.052zm-18.052 1.5h25.573v1.5H4.513zm27.078 0h1.5v1.5h-1.5zm0 0" fill="#fff"/></svg>