<svg xmlns="http://www.w3.org/2000/svg" width="27.662" height="32.116"><defs><style>.a{fill:#c5de20}</style></defs><path class="a" d="M17.582 1.25h-3.751v2.344h2.579v4.415a7.033 7.033 0 01-14.065 0V3.594h2.5V1.25H1.172A1.172 1.172 0 00-.001 2.418v5.587a9.377 9.377 0 0018.754 0V2.418a1.172 1.172 0 00-1.171-1.168z"/><path class="a" d="M22.154 18.363v5.548a5.861 5.861 0 11-11.721 0v-7.658H8.089v7.658a8.205 8.205 0 1016.41 0v-5.548z"/><path class="a" d="M23.325 10.783a4.337 4.337 0 104.337 4.337 4.342 4.342 0 00-4.337-4.337zm0 6.329a1.993 1.993 0 111.993-1.993 2 2 0 01-1.993 1.994zM4.806 0a1.172 1.172 0 00-1.172 1.172v2.5a1.172 1.172 0 102.344 0v-2.5A1.172 1.172 0 004.806 0zm9.064 0a1.172 1.172 0 00-1.172 1.172v2.5a1.172 1.172 0 002.344 0v-2.5A1.172 1.172 0 0013.87 0z"/></svg>